/* XPM */
static char * C:\Users\dan\Documents\GitHub\flappycoin\share\pixmaps\bitcoin16_xpm[] = {
"16 16 203 2",
"  	c None",
". 	c #63B375",
"+ 	c #70B387",
"@ 	c #79C898",
"# 	c #6EB185",
"$ 	c #5EAD6E",
"% 	c #68B97D",
"& 	c #7CCF9D",
"* 	c #95E7C3",
"= 	c #9AEAC8",
"- 	c #9CEBCA",
"; 	c #9BEBCA",
"> 	c #93E6C1",
", 	c #78CA97",
"' 	c #5FB072",
") 	c #6ABD82",
"! 	c #84D9A9",
"~ 	c #91E5BC",
"{ 	c #94E6BF",
"] 	c #97E6C2",
"^ 	c #98E7C3",
"/ 	c #98E7C4",
"( 	c #97E6C1",
"_ 	c #9BE7BE",
": 	c #A4E9BC",
"< 	c #96DDAA",
"[ 	c #74BA7B",
"} 	c #6AB775",
"| 	c #84D69F",
"1 	c #89E0B0",
"2 	c #8CE1B5",
"3 	c #96E6BB",
"4 	c #A9EEC1",
"5 	c #B0F3C5",
"6 	c #AAF1C5",
"7 	c #ADF1C3",
"8 	c #B5EDBD",
"9 	c #B6EBB7",
"0 	c #B0E9B1",
"a 	c #9CDC9F",
"b 	c #6CB572",
"c 	c #81CC86",
"d 	c #9EE5A5",
"e 	c #8DDFA8",
"f 	c #99E7B2",
"g 	c #9DD6A7",
"h 	c #8BAB91",
"i 	c #76847B",
"j 	c #6E7F70",
"k 	c #748576",
"l 	c #A1D2A3",
"m 	c #AEEAB0",
"n 	c #A6E6A9",
"o 	c #9FE4A1",
"p 	c #7CC380",
"q 	c #5DAC64",
"r 	c #8FDF92",
"s 	c #98E29B",
"t 	c #A1E9A5",
"u 	c #8EC591",
"v 	c #969E91",
"w 	c #C9C991",
"x 	c #E3E08B",
"y 	c #AFB0B1",
"z 	c #EBEBE8",
"A 	c #98A398",
"B 	c #96D298",
"C 	c #9DE5A0",
"D 	c #95E198",
"E 	c #85D689",
"F 	c #64AA69",
"G 	c #88DE8A",
"H 	c #8CDC8F",
"I 	c #779A77",
"J 	c #616560",
"K 	c #868672",
"L 	c #F3ED38",
"M 	c #D6CF30",
"N 	c #ADADB7",
"O 	c #F6F7F3",
"P 	c #AEADAC",
"Q 	c #757D75",
"R 	c #92E295",
"S 	c #8BDE8D",
"T 	c #84DD87",
"U 	c #5B9B5F",
"V 	c #64BA69",
"W 	c #80DD82",
"X 	c #64A268",
"Y 	c #BFC4A2",
"Z 	c #FFFFF7",
"` 	c #FBFDEC",
" .	c #9A9856",
"..	c #D3CD2B",
"+.	c #B6B480",
"@.	c #D1D3CF",
"#.	c #BABDBB",
"$.	c #676B6B",
"%.	c #79C87E",
"&.	c #83DE86",
"*.	c #7CDA7E",
"=.	c #56AB5B",
"-.	c #5FB664",
";.	c #77D679",
">.	c #62A969",
",.	c #8D9B57",
"'.	c #E4E38F",
").	c #E4E492",
"!.	c #AAA240",
"~.	c #DED425",
"{.	c #BBA637",
"].	c #996C5B",
"^.	c #A17066",
"/.	c #87564D",
"(.	c #7E7E59",
"_.	c #73CB78",
":.	c #75D676",
"<.	c #51A756",
"[.	c #57A15B",
"}.	c #6BCE6F",
"|.	c #64C26F",
"1.	c #4D8553",
"2.	c #877F31",
"3.	c #B89924",
"4.	c #E8B417",
"5.	c #EABB1C",
"6.	c #9D6540",
"7.	c #B45548",
"8.	c #BA5846",
"9.	c #B95947",
"0.	c #62614A",
"a.	c #64BD68",
"b.	c #69CE6D",
"c.	c #4E9252",
"d.	c #4A9D51",
"e.	c #5CC565",
"f.	c #62CA6A",
"g.	c #5AB363",
"h.	c #556D42",
"i.	c #7C6833",
"j.	c #FAB912",
"k.	c #F0B214",
"l.	c #BD8927",
"m.	c #785340",
"n.	c #6E4B44",
"o.	c #6D4C44",
"p.	c #4A8B4F",
"q.	c #65C767",
"r.	c #56BD5E",
"s.	c #4AAD56",
"t.	c #5BC760",
"u.	c #5BC263",
"v.	c #4A9E56",
"w.	c #3C7846",
"x.	c #41533F",
"y.	c #40523F",
"z.	c #405D41",
"A.	c #427B45",
"B.	c #438245",
"C.	c #428849",
"D.	c #59B45A",
"E.	c #5EC660",
"F.	c #4AA751",
"G.	c #439C4B",
"H.	c #4EB954",
"I.	c #51C05B",
"J.	c #58C25D",
"K.	c #4EB35B",
"L.	c #4C9F4F",
"M.	c #4B9C4E",
"N.	c #4CA354",
"O.	c #57B95E",
"P.	c #5ABF5D",
"Q.	c #53BB5E",
"R.	c #58C05A",
"S.	c #4EB651",
"T.	c #3F9A43",
"U.	c #3C9C43",
"V.	c #3EAF48",
"W.	c #3EB748",
"X.	c #40BA4A",
"Y.	c #4CBE54",
"Z.	c #53C159",
"`.	c #4FC05A",
" +	c #51C059",
".+	c #50C055",
"++	c #43B74F",
"@+	c #39AD41",
"#+	c #31963A",
"$+	c #34973C",
"%+	c #37A03F",
"&+	c #37AF3F",
"*+	c #38B641",
"=+	c #3BB845",
"-+	c #3BB945",
";+	c #3EB846",
">+	c #39AC41",
",+	c #339E3B",
"'+	c #2E9436",
")+	c #3C8942",
"!+	c #33973B",
"~+	c #32963A",
"{+	c #3A8840",
"          . + @ @ # $           ",
"      % & * = - ; = > , '       ",
"    ) ! ~ { ] ^ / ( _ : < [     ",
"  } | 1 2 3 4 5 6 7 8 9 0 a b   ",
"  c d e f g h i j k l m n o p   ",
"q r s t u v w x y z A B C D E   ",
"F G H I J K L M N O P Q R S T U ",
"V W X Y Z `  ...+.@.#.$.%.&.*.=.",
"-.;.>.,.'.).!.~.{.].^./.(._.:.<.",
"[.}.|.1.2.3.4.5.6.7.8.9.0.a.b.c.",
"d.e.f.g.h.i.j.k.l.m.n.o.p.q.r.  ",
"  s.t.u.v.w.x.y.z.A.B.C.D.E.F.  ",
"  G.H.I.J.K.L.M.N.O.P.Q.R.S.T.  ",
"    U.V.W.X.Y.Z.`. +.+++@+#+    ",
"      $+%+&+*+=+-+;+>+,+'+      ",
"            )+!+~+{+            "};
