/* XPM */
static char * C:\Users\dan\Documents\GitHub\flappycoin\share\pixmaps\bitcoin32_xpm[] = {
"32 32 756 2",
"  	c None",
". 	c #59A764",
"+ 	c #58A663",
"@ 	c #5AA265",
"# 	c #5DAB6B",
"$ 	c #5DAA6A",
"% 	c #58A062",
"& 	c #55A360",
"* 	c #54A25F",
"= 	c #5DAC6A",
"- 	c #61B072",
"; 	c #72C18B",
"> 	c #84D5A8",
", 	c #92E5C0",
"' 	c #9CEDCE",
") 	c #9DEED1",
"! 	c #9DEED0",
"~ 	c #9CEED0",
"{ 	c #91E4C0",
"] 	c #82D3A7",
"^ 	c #6DBD86",
"/ 	c #5DAC6D",
"( 	c #55A362",
"_ 	c #57A561",
": 	c #68B27A",
"< 	c #7BCD9B",
"[ 	c #92E5BF",
"} 	c #98EAC8",
"| 	c #98E9C7",
"1 	c #99E9C7",
"2 	c #99E9C8",
"3 	c #98E9C6",
"4 	c #98EAC7",
"5 	c #8FE3BC",
"6 	c #77C997",
"7 	c #60AD73",
"8 	c #4D9B56",
"9 	c #5BAA67",
"0 	c #76C994",
"a 	c #8ADFB4",
"b 	c #93E7C0",
"c 	c #94E6C0",
"d 	c #95E6C1",
"e 	c #97E7C4",
"f 	c #98E8C5",
"g 	c #99E9C6",
"h 	c #99E8C6",
"i 	c #99E8C5",
"j 	c #98E7C4",
"k 	c #96E7C2",
"l 	c #94E5C0",
"m 	c #93E6BF",
"n 	c #91E6BF",
"o 	c #89DEB3",
"p 	c #70C58F",
"q 	c #52A362",
"r 	c #5DAC6B",
"s 	c #80D6A4",
"t 	c #8CE2B6",
"u 	c #8FE3B9",
"v 	c #91E4BB",
"w 	c #94E5BE",
"x 	c #95E6C0",
"y 	c #97E6C2",
"z 	c #98E8C3",
"A 	c #99E8C4",
"B 	c #9AE8C5",
"C 	c #9AE8C4",
"D 	c #99E7C3",
"E 	c #98E7C2",
"F 	c #96E6C1",
"G 	c #94E5BF",
"H 	c #91E4BD",
"I 	c #94E4BA",
"J 	c #93E3B8",
"K 	c #90E2B5",
"L 	c #80D29D",
"M 	c #57A564",
"N 	c #5CAC6A",
"O 	c #82D9A7",
"P 	c #88DFB1",
"Q 	c #8BE1B4",
"R 	c #8EE2B7",
"S 	c #91E3BA",
"T 	c #94E5BD",
"U 	c #95E5BE",
"V 	c #97E5C0",
"W 	c #98E6C1",
"X 	c #99E7C2",
"Y 	c #98E7C1",
"Z 	c #95E5BF",
"` 	c #98E6BD",
" .	c #9DE6BC",
"..	c #B3EABB",
"+.	c #B5EBB9",
"@.	c #B3E9B5",
"#.	c #B0E9B3",
"$.	c #9ADBA1",
"%.	c #54A05D",
"&.	c #5AA864",
"*.	c #7AD19B",
"=.	c #85DDAB",
"-.	c #87DEAE",
";.	c #8BDFB2",
">.	c #8EE1B5",
",.	c #90E3B8",
"'.	c #92E4BA",
").	c #95E5BD",
"!.	c #97E5BE",
"~.	c #9AE7C0",
"{.	c #9BE7C0",
"].	c #9BE7C1",
"^.	c #98E6C0",
"/.	c #A3E8BF",
"(.	c #B1EABD",
"_.	c #BAECBC",
":.	c #B7EBBA",
"<.	c #B5EAB7",
"[.	c #B1E9B3",
"}.	c #ADE8B0",
"|.	c #ADE9AF",
"1.	c #91D394",
"2.	c #4B9852",
"3.	c #56A35D",
"4.	c #80C988",
"5.	c #89DDA5",
"6.	c #86DDA8",
"7.	c #84DDAB",
"8.	c #88DEAF",
"9.	c #8BE0B2",
"0.	c #8DE1B4",
"a.	c #90E2B7",
"b.	c #99E5BA",
"c.	c #A6E8BC",
"d.	c #B6EFC0",
"e.	c #B6EFC1",
"f.	c #B7EFC1",
"g.	c #B5EFC1",
"h.	c #9EEABF",
"i.	c #A8ECBF",
"j.	c #BCF0C0",
"k.	c #BBEEBD",
"l.	c #B7EBB9",
"m.	c #B5EAB6",
"n.	c #B1EAB3",
"o.	c #AEE8B0",
"p.	c #AAE6AD",
"q.	c #A6E5A9",
"r.	c #A8E9AA",
"s.	c #76BE7B",
"t.	c #408D48",
"u.	c #6AB06F",
"v.	c #99DE9B",
"w.	c #9FE3A4",
"x.	c #9CE3A7",
"y.	c #88DDA8",
"z.	c #84DDAA",
"A.	c #87DFAE",
"B.	c #93E2B1",
"C.	c #9EE7B6",
"D.	c #B3EEBA",
"E.	c #B3E9B8",
"F.	c #91B392",
"G.	c #90B190",
"H.	c #90B191",
"I.	c #92B393",
"J.	c #8EB393",
"K.	c #8BB08F",
"L.	c #91B592",
"M.	c #AADBAC",
"N.	c #B5EDB7",
"O.	c #ADE9B0",
"P.	c #AAE7AC",
"Q.	c #A6E6A8",
"R.	c #A2E4A5",
"S.	c #9EE3A1",
"T.	c #9DE49F",
"U.	c #56A25C",
"V.	c #5AA761",
"W.	c #7CC881",
"X.	c #9AE49D",
"Y.	c #9DE39F",
"Z.	c #A0E5A3",
"`.	c #9DE3A6",
" +	c #88DEA8",
".+	c #8BDFAB",
"++	c #A7E9B1",
"@+	c #A1D4A4",
"#+	c #9AC59B",
"$+	c #94BB95",
"%+	c #72766E",
"&+	c #70736D",
"*+	c #72756F",
"=+	c #5B5D5A",
"-+	c #50524F",
";+	c #737672",
">+	c #727872",
",+	c #88A689",
"'+	c #A6DDA8",
")+	c #ACE9AE",
"!+	c #A8E7AB",
"~+	c #A5E6A8",
"{+	c #A1E5A4",
"]+	c #9DE3A0",
"^+	c #99E29C",
"/+	c #97E198",
"(+	c #82CF85",
"_+	c #3A8842",
":+	c #5DAB64",
"<+	c #8EDD92",
"[+	c #94E097",
"}+	c #98E29B",
"|+	c #A0E4A2",
"1+	c #A0E5A6",
"2+	c #A3E6A8",
"3+	c #B0F3B3",
"4+	c #6D8B6F",
"5+	c #414642",
"6+	c #4F5450",
"7+	c #E5E7E1",
"8+	c #EBEDE9",
"9+	c #FCFEEE",
"0+	c #919189",
"a+	c #595758",
"b+	c #F7F9F4",
"c+	c #DEDFDC",
"d+	c #6B6A6A",
"e+	c #82AF85",
"f+	c #A8EAAA",
"g+	c #A4E6A7",
"h+	c #A1E5A3",
"i+	c #95E098",
"j+	c #91DE94",
"k+	c #8BDB8E",
"l+	c #54A45B",
"m+	c #68B96E",
"n+	c #8DE090",
"o+	c #8FDF92",
"p+	c #93E196",
"q+	c #97E29A",
"r+	c #9CE49E",
"s+	c #9FE6A3",
"t+	c #A0E4A3",
"u+	c #566A58",
"v+	c #A9A99F",
"w+	c #F7F8E6",
"x+	c #F7F7D6",
"y+	c #F9F230",
"z+	c #FFFC26",
"A+	c #747136",
"B+	c #A2A2A2",
"C+	c #FAFCF7",
"D+	c #FDFFFA",
"E+	c #FFFFFF",
"F+	c #7B7A7B",
"G+	c #69876B",
"H+	c #9EE6A1",
"I+	c #9CE49F",
"J+	c #94E096",
"K+	c #90DF92",
"L+	c #8BDD8E",
"M+	c #87DB8A",
"N+	c #6ABA6D",
"O+	c #52A059",
"P+	c #74C878",
"Q+	c #87DD8A",
"R+	c #8ADD8D",
"S+	c #8FDF91",
"T+	c #92E095",
"U+	c #90D893",
"V+	c #607761",
"W+	c #617862",
"X+	c #484F49",
"Y+	c #696866",
"Z+	c #A5A47C",
"`+	c #FDF865",
" @	c #F9F126",
".@	c #FFFB22",
"+@	c #706E32",
"@@	c #9E9E9F",
"#@	c #FAF9F6",
"$@	c #FEFFFB",
"%@	c #F3F4F0",
"&@	c #A7A6A4",
"*@	c #AEACAB",
"=@	c #939D92",
"-@	c #637E64",
";@	c #99E69B",
">@	c #87DC8A",
",@	c #82DA85",
"'@	c #73CA77",
")@	c #509E58",
"!@	c #7AD47D",
"~@	c #81DB84",
"{@	c #85DC88",
"]@	c #89DE8D",
"^@	c #83CC86",
"/@	c #709971",
"(@	c #898682",
"_@	c #898882",
":@	c #8B8B84",
"<@	c #888983",
"[@	c #918F69",
"}@	c #B6AF22",
"|@	c #FBF324",
"1@	c #FFFD22",
"2@	c #6D6A33",
"3@	c #9D9BA0",
"4@	c #FBF8F7",
"5@	c #EDEDEA",
"6@	c #646363",
"7@	c #C5C5C2",
"8@	c #AEAEAD",
"9@	c #434743",
"0@	c #8FE092",
"a@	c #8DDF90",
"b@	c #8ADE8C",
"c@	c #86DC88",
"d@	c #81DA84",
"e@	c #7ED881",
"f@	c #72CC76",
"g@	c #45974D",
"h@	c #509F58",
"i@	c #7BDA7E",
"j@	c #7DD980",
"k@	c #84DD88",
"l@	c #6EA870",
"m@	c #4A4449",
"n@	c #FFFFFA",
"o@	c #FFFFF4",
"p@	c #FFFFF2",
"q@	c #E2E4D6",
"r@	c #787976",
"s@	c #BEB931",
"t@	c #F1E925",
"u@	c #A49F2D",
"v@	c #9A9779",
"w@	c #C2C0C2",
"x@	c #F6F7F3",
"y@	c #A3A2A0",
"z@	c #DFDFDC",
"A@	c #AEAFAD",
"B@	c #454A45",
"C@	c #83D486",
"D@	c #85DC87",
"E@	c #80DA83",
"F@	c #79D67C",
"G@	c #70CE74",
"H@	c #499C4F",
"I@	c #51A159",
"J@	c #79DA7C",
"K@	c #7AD87D",
"L@	c #7EDA81",
"M@	c #7FD781",
"N@	c #679E69",
"O@	c #4E4B4A",
"P@	c #FFFECF",
"Q@	c #FBFDE2",
"R@	c #FAFCEA",
"S@	c #F8F9DF",
"T@	c #E1E2B4",
"U@	c #646243",
"V@	c #CCC52B",
"W@	c #FCF423",
"X@	c #ABA535",
"Y@	c #817D61",
"Z@	c #DFDCDD",
"`@	c #DEDFDB",
" #	c #D9DAD6",
".#	c #E2E4E0",
"+#	c #9B9C9A",
"@#	c #444844",
"##	c #71B373",
"$#	c #81D584",
"%#	c #81DC85",
"&#	c #7ED981",
"*#	c #7AD77C",
"=#	c #76D67A",
"-#	c #6FCF72",
";#	c #4A9D50",
">#	c #4F9F57",
",#	c #76D979",
"'#	c #76D579",
")#	c #79D57B",
"!#	c #78D07A",
"~#	c #5F9360",
"{#	c #4E483E",
"]#	c #FFFF48",
"^#	c #FDFDC7",
"/#	c #FAFDF7",
"(#	c #FAFCF6",
"_#	c #FCFDC2",
":#	c #F1E92C",
"<#	c #545340",
"[#	c #C6BF2D",
"}#	c #FEF623",
"|#	c #F8F024",
"1#	c #D6D02D",
"2#	c #3E4651",
"3#	c #474F50",
"4#	c #485051",
"5#	c #41484A",
"6#	c #394042",
"7#	c #43594C",
"8#	c #76C479",
"9#	c #80DF82",
"0#	c #7AD87E",
"a#	c #77D779",
"b#	c #71D174",
"c#	c #6ACA6D",
"d#	c #479B4D",
"e#	c #4B9B53",
"f#	c #70D271",
"g#	c #70D072",
"h#	c #74D276",
"i#	c #73CB76",
"j#	c #60A865",
"k#	c #4A794E",
"l#	c #68643E",
"m#	c #D4CE3A",
"n#	c #FDF638",
"o#	c #FCF538",
"p#	c #D1CA3A",
"q#	c #5D5B3E",
"r#	c #E4DD28",
"s#	c #F6EE25",
"t#	c #FFF823",
"u#	c #A39F32",
"v#	c #735642",
"w#	c #F2654C",
"x#	c #EA644B",
"y#	c #D9624B",
"z#	c #64584A",
"A#	c #64A769",
"B#	c #76D478",
"C#	c #6DCE6F",
"D#	c #65C567",
"E#	c #43984A",
"F#	c #499850",
"G#	c #67C769",
"H#	c #71D072",
"I#	c #70CC73",
"J#	c #58B16A",
"K#	c #4D8F55",
"L#	c #4A6644",
"M#	c #7C8038",
"N#	c #908B35",
"O#	c #8D8A35",
"P#	c #978A31",
"Q#	c #B88F24",
"R#	c #F9D019",
"S#	c #FFD617",
"T#	c #ACA12D",
"U#	c #9F6F40",
"V#	c #AD5749",
"W#	c #8F5246",
"X#	c #915246",
"Y#	c #8A5647",
"Z#	c #5C7751",
"`#	c #64B067",
" $	c #6FCE71",
".$	c #69CC6B",
"+$	c #60C062",
"@$	c #3C8F44",
"#$	c #47974F",
"$$	c #5CBA60",
"%$	c #68CC6B",
"&$	c #68CB6E",
"*$	c #69CB71",
"=$	c #5CBF6F",
"-$	c #5BAC61",
";$	c #4A8651",
">$	c #3D4A44",
",$	c #705B36",
"'$	c #866B31",
")$	c #A68029",
"!$	c #FFC20E",
"~$	c #FCB910",
"{$	c #FFBE0F",
"]$	c #A38027",
"^$	c #9F5F3F",
"/$	c #B5574A",
"($	c #845046",
"_$	c #875046",
":$	c #7E4D45",
"<$	c #394743",
"[$	c #529155",
"}$	c #64BC66",
"|$	c #6AC96B",
"1$	c #68CA6A",
"2$	c #61C767",
"3$	c #56B85C",
"4$	c #32823A",
"5$	c #51A957",
"6$	c #60C968",
"7$	c #5BC56A",
"8$	c #60C86D",
"9$	c #61C76E",
"0$	c #60BF6B",
"a$	c #539E5D",
"b$	c #446347",
"c$	c #A38428",
"d$	c #CE9C1E",
"e$	c #DAA41B",
"f$	c #FFBE10",
"g$	c #FFBD10",
"h$	c #FEBC10",
"i$	c #FFC60D",
"j$	c #BC9520",
"k$	c #876636",
"l$	c #D25E4A",
"m$	c #CD5E49",
"n$	c #CE5E49",
"o$	c #BE5B49",
"p$	c #3C5B44",
"q$	c #559957",
"r$	c #63BF65",
"s$	c #66C768",
"t$	c #64C866",
"u$	c #51BE64",
"v$	c #48A651",
"w$	c #499C50",
"x$	c #58C061",
"y$	c #55C264",
"z$	c #60C965",
"A$	c #61C968",
"B$	c #65C86A",
"C$	c #5BB361",
"D$	c #498B4E",
"E$	c #4A5C40",
"F$	c #4D4D3E",
"G$	c #756735",
"H$	c #EBB016",
"I$	c #E5AC17",
"J$	c #E6AD17",
"K$	c #E0A919",
"L$	c #C19422",
"M$	c #484544",
"N$	c #4F4942",
"O$	c #4E4941",
"P$	c #4E4942",
"Q$	c #4E4841",
"R$	c #4E4D43",
"S$	c #478849",
"T$	c #5AAE5D",
"U$	c #63C465",
"V$	c #62C764",
"W$	c #60C561",
"X$	c #4AB95E",
"Y$	c #3A9141",
"Z$	c #45964C",
"`$	c #4CAD57",
" %	c #51C060",
".%	c #5CC660",
"+%	c #5BC663",
"@%	c #61C866",
"#%	c #5CBE62",
"$%	c #4FA357",
"%%	c #3E814A",
"&%	c #387141",
"*%	c #3A603F",
"=%	c #50473F",
"-%	c #4F483F",
";%	c #4F493F",
">%	c #4B4F3E",
",%	c #396E3E",
"'%	c #3C6F3F",
")%	c #3A6F3E",
"!%	c #3B6F3D",
"~%	c #356D40",
"{%	c #437F45",
"]%	c #509E52",
"^%	c #5DBB5F",
"/%	c #60C662",
"(%	c #5DC45F",
"_%	c #5CC35D",
":%	c #42AB53",
"<%	c #2D7934",
"[%	c #449850",
"}%	c #4EBA59",
"|%	c #58C35B",
"1%	c #5BC55E",
"2%	c #5DC661",
"3%	c #55BF64",
"4%	c #50B462",
"5%	c #4BA259",
"6%	c #429050",
"7%	c #3C7E49",
"8%	c #3E693F",
"9%	c #3A643D",
"0%	c #3B633D",
"a%	c #39633D",
"b%	c #3D663F",
"c%	c #3B7045",
"d%	c #468C4A",
"e%	c #4C944E",
"f%	c #4B944D",
"g%	c #4A934B",
"h%	c #3F914F",
"i%	c #51A252",
"j%	c #58B55B",
"k%	c #5DC360",
"l%	c #5CC45E",
"m%	c #59C15B",
"n%	c #57C159",
"o%	c #32893F",
"p%	c #3E8D47",
"q%	c #44A850",
"r%	c #53C057",
"s%	c #51C059",
"t%	c #56C25C",
"u%	c #52BF61",
"v%	c #5AC360",
"w%	c #5DC05F",
"x%	c #53B45C",
"y%	c #48A157",
"z%	c #49924B",
"A%	c #448946",
"B%	c #448A47",
"C%	c #438947",
"D%	c #468D49",
"E%	c #439653",
"F%	c #54AE59",
"G%	c #59B85E",
"H%	c #57B85D",
"I%	c #58B85B",
"J%	c #4CB25D",
"K%	c #5ABB5C",
"L%	c #5BC05D",
"M%	c #5AC25C",
"N%	c #58C15A",
"O%	c #56C057",
"P%	c #45A448",
"Q%	c #2B7733",
"R%	c #3F9347",
"S%	c #49B14E",
"T%	c #4DBC52",
"U%	c #53C058",
"V%	c #4EBE5C",
"W%	c #53C05C",
"X%	c #54C15A",
"Y%	c #50BE5B",
"Z%	c #4DB65C",
"`%	c #56B559",
" &	c #53B057",
".&	c #52AF57",
"+&	c #56B258",
"@&	c #4CB25F",
"#&	c #59C15F",
"$&	c #5BC55F",
"%&	c #5BC55D",
"&&	c #4CBC5F",
"*&	c #5BC35D",
"=&	c #56BF58",
"-&	c #4EBB53",
";&	c #4DBB51",
">&	c #46AB4A",
",&	c #2F7E36",
"'&	c #3C9143",
")&	c #3CAD43",
"!&	c #44B64B",
"~&	c #42B44F",
"{&	c #44B84E",
"]&	c #41B94A",
"^&	c #40B94A",
"/&	c #44BA4E",
"(&	c #4DBC55",
"_&	c #55C15B",
":&	c #5AC45E",
"<&	c #58C35D",
"[&	c #4DBC61",
"}&	c #56C35B",
"|&	c #54C25A",
"1&	c #56C359",
"2&	c #48B95C",
"3&	c #49B74F",
"4&	c #42B549",
"5&	c #39B442",
"6&	c #36A43E",
"7&	c #2F8436",
"8&	c #388D40",
"9&	c #36A73F",
"0&	c #35B040",
"a&	c #37B041",
"b&	c #3AB943",
"c&	c #3BBA44",
"d&	c #3EBA46",
"e&	c #3EBA47",
"f&	c #42B84B",
"g&	c #4DBD52",
"h&	c #51C05D",
"i&	c #46B850",
"j&	c #42B751",
"k&	c #53C15A",
"l&	c #55C158",
"m&	c #53C156",
"n&	c #47B84D",
"o&	c #3AAF48",
"p&	c #38B340",
"q&	c #36B43E",
"r&	c #32A63A",
"s&	c #2C8434",
"t&	c #37893F",
"u&	c #369E3E",
"v&	c #35B23D",
"w&	c #37B340",
"x&	c #39B741",
"y&	c #39B843",
"z&	c #39B543",
"A&	c #38B044",
"B&	c #39B145",
"C&	c #3AB146",
"D&	c #3CB944",
"E&	c #3BB745",
"F&	c #39B044",
"G&	c #3DB246",
"H&	c #42B548",
"I&	c #39B341",
"J&	c #36B53E",
"K&	c #35B43D",
"L&	c #309D38",
"M&	c #2B7C33",
"N&	c #35833D",
"O&	c #348D3D",
"P&	c #34A63D",
"Q&	c #36B13F",
"R&	c #34AB3F",
"S&	c #36B240",
"T&	c #39B841",
"U&	c #39B842",
"V&	c #38B741",
"W&	c #37B53F",
"X&	c #33AD3D",
"Y&	c #33AE3D",
"Z&	c #32A73B",
"`&	c #2D8835",
" *	c #297431",
".*	c #327E3B",
"+*	c #328C3A",
"@*	c #329A3B",
"#*	c #34A73D",
"$*	c #35AD3D",
"%*	c #36B13E",
"&*	c #36B23E",
"**	c #36B03D",
"=*	c #34AD3C",
"-*	c #33A93B",
";*	c #319D39",
">*	c #2F7D37",
",*	c #2F8738",
"'*	c #308C38",
")*	c #2F8C38",
"!*	c #2F8C37",
"~*	c #2F8B37",
"{*	c #2D8535",
"]*	c #2B7A33",
"                        . + @ # $ % & *                         ",
"                  = - ; > , ' ) ! ~ { ] ^ / (                   ",
"              _ : < [ } } | 1 2 2 | 3 4 } 5 6 7 8               ",
"            9 0 a b c d e f g g h i j k l m n o p q             ",
"          r s t u v w x y z A B C D E F G H I J K L M           ",
"        N O P Q R S T U V W X D X Y W Z `  ...+.@.#.$.%.        ",
"      &.*.=.-.;.>.,.'.).!.~.{.].{.^.^./.(._.:.<.[.}.|.1.2.      ",
"    3.4.5.6.7.8.9.0.a.b.c.d.e.f.g.h.i.j.k.l.m.n.o.p.q.r.s.t.    ",
"    u.v.w.x.y.z.A.B.C.D.E.F.G.H.I.J.K.L.M.N.n.O.P.Q.R.S.T.U.    ",
"  V.W.X.Y.Z.`. +.+++@+#+$+%+&+*+=+-+;+>+,+'+)+!+~+{+]+^+/+(+_+  ",
"  :+<+[+}+Y.|+1+2+3+4+5+6+7+8+9+0+a+b+c+d+e+f+g+h+]+^+i+j+k+l+  ",
"  m+n+o+p+q+r+s+t+u+v+w+x+y+z+A+B+C+D+D+E+F+G+H+I+}+J+K+L+M+N+  ",
"O+P+Q+R+S+T+U+V+W+X+Y+Z+`+ @.@+@@@#@$@%@&@*@=@-@;@p+o+R+>@,@'@_+",
")@!@~@{@]@^@/@(@_@:@<@[@}@|@1@2@3@4@$@5@6@7@8@9@0@a@b@c@d@e@f@g@",
"h@i@j@d@k@l@m@n@o@p@o@q@r@s@t@u@v@w@E+x@y@z@A@B@C@>@D@E@j@F@G@H@",
"I@J@K@L@M@N@O@P@Q@R@R@S@T@U@V@W@X@Y@Z@`@ #.#+#@###$#%#&#*#=#-#;#",
">#,#'#)#!#~#{#]#^#/#(#_#:#<#[#}#|#1#2#3#4#4#5#6#7#8#9#0#a#b#c#d#",
"e#f#g#h#i#j#k#l#m#n#o#p#q#r#s#t#u#v#w#x#x#x#x#x#y#z#A#B#g#C#D#E#",
"F#G#C#H#I#J#K#L#M#N#O#P#Q#R#S#T#U#V#W#X#X#X#X#X#Y#Z#`# $C#.$+$@$",
"#$$$%$&$*$=$-$;$>$,$'$)$!$~${$]$^$/$($_$_$_$_$:$<$[$}$|$1$2$3$4$",
"  5$6$7$8$9$0$a$b$c$d$e$f$g$h$i$j$k$l$m$m$m$n$o$p$q$r$s$t$u$v$  ",
"  w$x$y$z$A$B$C$D$E$F$G$H$I$I$J$K$L$M$N$O$P$Q$R$S$T$U$V$W$X$Y$  ",
"  Z$`$ %.%+%@%#%$%%%&%*%=%-%;%;%-%>%,%'%)%!%~%{%]%^%/%(%_%:%<%  ",
"    [%}%|%1%2%3%4%5%6%7%8%9%0%a%b%c%d%e%f%g%h%i%j%k%l%m%n%o%    ",
"    p%q%r%s%t%u%v%w%x%y%z%A%B%C%D%E%F%G%H%I%J%K%L%M%N%O%P%Q%    ",
"      R%S%T%U%V%W%X%Y%Z%`% & &.&+&@&#&2%$&%&&&*&=&-&;&>&,&      ",
"        '&)&!&~&{&]&^&/&(&_&:&<&l%[&t%}&|&1&2&3&4&5&6&7&        ",
"          8&9&0&a&b&c&d&e&f&g&h&i&j&k&l&m&n&o&p&q&r&s&          ",
"            t&u&v&w&x&y&z&A&B&C&D&E&F&G&H&I&J&K&L&M&            ",
"              N&O&P&Q&R&S&T&U&U&U&x&V&W&X&Y&Z&`& *              ",
"                  .*+*@*#*$*%*&*&***=*-*;*`& *                  ",
"                        >*,*'*)*!*~*{*]*                        "};
